<mxfile host="app.diagrams.net" modified="2023-06-09T06:36:35.592Z" agent="Mozilla/5.0 (Windows NT 10.0; Win64; x64; rv:109.0) Gecko/20100101 Firefox/113.0" version="21.3.8" etag="mb335lBbB0F2LZ50Y5d2" type="github">
  <diagram name="第 1 页" id="fDnLImFCPlmlRplgPAzp">
    <mxGraphModel>
      <root>
        <mxCell id="0" />
        <mxCell id="1" parent="0" />
      </root>
    </mxGraphModel>
  </diagram>
</mxfile>
